<svg xmlns="http://www.w3.org/2000/svg" viewBox="0 0 1000 1000" role="img" aria-labelledby="title desc">
  <title id="title">Crab AI VTuber artist photo</title>
  <desc id="desc">A cheerful crab AI VTuber portrait with a red shell, claws, headset and neon studio lighting.</desc>
  <defs>
    <radialGradient id="bg" cx="50%" cy="35%" r="65%"><stop offset="0" stop-color="#ffbd8f"/><stop offset="0.5" stop-color="#fb466b"/><stop offset="1" stop-color="#310b2d"/></radialGradient>
    <linearGradient id="shell" x1="0" x2="1" y1="0" y2="1"><stop offset="0" stop-color="#ff9b62"/><stop offset="1" stop-color="#d3163a"/></linearGradient>
    <filter id="shadow"><feDropShadow dx="0" dy="24" stdDeviation="22" flood-opacity="0.35"/></filter>
  </defs>
  <rect width="1000" height="1000" rx="72" fill="url(#bg)"/>
  <g opacity="0.22" fill="none" stroke="#fff"><circle cx="500" cy="500" r="330"/><circle cx="500" cy="500" r="235"/><path d="M150 760 C330 640 670 640 850 760"/></g>
  <g transform="translate(500 548)" filter="url(#shadow)">
    <ellipse cx="0" cy="0" rx="245" ry="195" fill="url(#shell)"/>
    <path d="M-150 -55 C-95 -130 92 -140 150 -52" fill="none" stroke="#ffd3b9" stroke-width="31" stroke-linecap="round" opacity="0.74"/>
    <circle cx="-92" cy="-197" r="47" fill="#fff8ea"/><circle cx="92" cy="-197" r="47" fill="#fff8ea"/>
    <circle cx="-77" cy="-189" r="17" fill="#121826"/><circle cx="107" cy="-189" r="17" fill="#121826"/>
    <path d="M-78 -118 Q0 -70 78 -118" fill="none" stroke="#44111a" stroke-width="16" stroke-linecap="round"/>
    <path d="M-225 -48 C-360 -168 -448 -116 -470 -22 C-410 -5 -372 26 -355 92 C-292 95 -248 55 -225 -48Z" fill="#c91435"/>
    <path d="M225 -48 C338 -177 430 -151 470 -66 C420 -30 390 8 382 82 C318 98 260 62 225 -48Z" fill="#ff7357"/>
    <g stroke="#ffbc9b" stroke-width="28" stroke-linecap="round"><path d="M-170 84 L-320 220"/><path d="M-82 137 L-188 302"/><path d="M82 137 L188 302"/><path d="M170 84 L320 220"/></g>
    <path d="M-165 -190 C-205 -240 -260 -250 -312 -216" stroke="#111827" stroke-width="22" fill="none" stroke-linecap="round"/>
    <path d="M165 -190 C205 -240 260 -250 312 -216" stroke="#111827" stroke-width="22" fill="none" stroke-linecap="round"/>
    <circle cx="-322" cy="-212" r="30" fill="#1f2937"/><circle cx="322" cy="-212" r="30" fill="#1f2937"/>
    <path d="M-210 -292 H210" stroke="#f8fafc" stroke-width="18" stroke-linecap="round" opacity="0.75"/>
  </g>
  <text x="500" y="880" text-anchor="middle" fill="#fff" font-family="Inter, Arial, sans-serif" font-size="78" font-weight="900" letter-spacing="-4">Kani</text>
</svg>
