<svg xmlns="http://www.w3.org/2000/svg" viewBox="0 0 1000 1000" role="img" aria-labelledby="title desc">
  <title id="title">Lobster AI VTuber artist photo</title>
  <desc id="desc">A calm lobster AI VTuber portrait with a long red shell, claws, headset and aqua neon studio lighting.</desc>
  <defs>
    <radialGradient id="bg" cx="50%" cy="35%" r="70%"><stop offset="0" stop-color="#82f7ff"/><stop offset="0.52" stop-color="#2364ff"/><stop offset="1" stop-color="#071033"/></radialGradient>
    <linearGradient id="shell" x1="0" x2="1" y1="0" y2="1"><stop offset="0" stop-color="#ffb45f"/><stop offset="1" stop-color="#bd1230"/></linearGradient>
    <filter id="shadow"><feDropShadow dx="0" dy="24" stdDeviation="22" flood-opacity="0.35"/></filter>
  </defs>
  <rect width="1000" height="1000" rx="72" fill="url(#bg)"/>
  <g opacity="0.22" fill="none" stroke="#fff"><path d="M500 105 V850"/><path d="M185 720 C340 575 660 575 815 720"/><circle cx="500" cy="500" r="310"/></g>
  <g transform="translate(500 530)" filter="url(#shadow)">
    <ellipse cx="0" cy="0" rx="185" ry="278" fill="url(#shell)"/>
    <path d="M-91 -168 C-35 -223 57 -224 103 -165" fill="none" stroke="#ffd4a6" stroke-width="30" stroke-linecap="round" opacity="0.76"/>
    <circle cx="-68" cy="-258" r="45" fill="#fff8ea"/><circle cx="76" cy="-258" r="45" fill="#fff8ea"/>
    <circle cx="-55" cy="-250" r="16" fill="#121826"/><circle cx="63" cy="-250" r="16" fill="#121826"/>
    <path d="M-62 -155 Q0 -105 66 -155" fill="none" stroke="#44111a" stroke-width="16" stroke-linecap="round"/>
    <g fill="none" stroke="#ffd2a8" stroke-width="14" opacity="0.42"><path d="M-145 -72 H145"/><path d="M-155 8 H155"/><path d="M-138 90 H138"/></g>
    <path d="M-148 162 C-97 246 -42 282 0 314 C42 282 97 246 148 162" fill="#97112b"/>
    <path d="M-158 -66 C-318 -157 -430 -102 -458 12 C-398 8 -363 40 -346 104 C-280 98 -195 48 -158 -66Z" fill="#bd1230"/>
    <path d="M158 -66 C290 -158 405 -138 458 -38 C400 -7 365 35 358 98 C292 111 203 51 158 -66Z" fill="#ff653e"/>
    <g stroke="#ffb45f" stroke-width="26" stroke-linecap="round"><path d="M-135 72 L-288 198"/><path d="M135 72 L288 198"/><path d="M-98 142 L-180 282"/><path d="M98 142 L180 282"/></g>
    <path d="M-142 -254 C-190 -315 -254 -326 -316 -282" stroke="#111827" stroke-width="22" fill="none" stroke-linecap="round"/>
    <path d="M142 -254 C190 -315 254 -326 316 -282" stroke="#111827" stroke-width="22" fill="none" stroke-linecap="round"/>
    <circle cx="-326" cy="-278" r="30" fill="#1f2937"/><circle cx="326" cy="-278" r="30" fill="#1f2937"/>
    <path d="M-205 -350 H205" stroke="#f8fafc" stroke-width="18" stroke-linecap="round" opacity="0.75"/>
  </g>
  <text x="500" y="880" text-anchor="middle" fill="#fff" font-family="Inter, Arial, sans-serif" font-size="78" font-weight="900" letter-spacing="-4">Lobster</text>
</svg>
